<?xml version="1.0" encoding="UTF-8" standalone="no"?>
<!DOCTYPE svg PUBLIC "-//W3C//DTD SVG 1.1//EN"
 "http://www.w3.org/Graphics/SVG/1.1/DTD/svg11.dtd">
<!-- Generated by graphviz version 9.0.0 (20231125.0833)
 -->
<!-- Title: snakemake_dag Pages: 1 -->
<svg width="273pt" height="404pt"
 viewBox="0.00 0.00 273.12 404.00" xmlns="http://www.w3.org/2000/svg" xmlns:xlink="http://www.w3.org/1999/xlink">
<g id="graph0" class="graph" transform="scale(1 1) rotate(0) translate(4 400)">
<title>snakemake_dag</title>
<polygon fill="white" stroke="none" points="-4,4 -4,-400 269.12,-400 269.12,4 -4,4"/>
<!-- 0 -->
<g id="node1" class="node">
<title>0</title>
<path fill="none" stroke="#56a9d8" stroke-width="2" d="M120.5,-36C120.5,-36 90.5,-36 90.5,-36 84.5,-36 78.5,-30 78.5,-24 78.5,-24 78.5,-12 78.5,-12 78.5,-6 84.5,0 90.5,0 90.5,0 120.5,0 120.5,0 126.5,0 132.5,-6 132.5,-12 132.5,-12 132.5,-24 132.5,-24 132.5,-30 126.5,-36 120.5,-36"/>
<text text-anchor="middle" x="105.5" y="-14.88" font-family="sans" font-size="10.00">all</text>
</g>
<!-- 1 -->
<g id="node2" class="node">
<title>1</title>
<path fill="none" stroke="#d85656" stroke-width="2" d="M126.62,-108C126.62,-108 84.38,-108 84.38,-108 78.38,-108 72.38,-102 72.38,-96 72.38,-96 72.38,-84 72.38,-84 72.38,-78 78.38,-72 84.38,-72 84.38,-72 126.62,-72 126.62,-72 132.62,-72 138.62,-78 138.62,-84 138.62,-84 138.62,-96 138.62,-96 138.62,-102 132.62,-108 126.62,-108"/>
<text text-anchor="middle" x="105.5" y="-86.88" font-family="sans" font-size="10.00">plot_quals</text>
</g>
<!-- 1&#45;&gt;0 -->
<g id="edge1" class="edge">
<title>1&#45;&gt;0</title>
<path fill="none" stroke="grey" stroke-width="2" d="M105.5,-71.34C105.5,-64.75 105.5,-57.08 105.5,-49.67"/>
<polygon fill="grey" stroke="grey" stroke-width="2" points="109,-49.93 105.5,-39.93 102,-49.93 109,-49.93"/>
</g>
<!-- 2 -->
<g id="node3" class="node">
<title>2</title>
<path fill="none" stroke="#56d8a9" stroke-width="2" d="M131.88,-180C131.88,-180 79.12,-180 79.12,-180 73.12,-180 67.12,-174 67.12,-168 67.12,-168 67.12,-156 67.12,-156 67.12,-150 73.12,-144 79.12,-144 79.12,-144 131.88,-144 131.88,-144 137.88,-144 143.88,-150 143.88,-156 143.88,-156 143.88,-168 143.88,-168 143.88,-174 137.88,-180 131.88,-180"/>
<text text-anchor="middle" x="105.5" y="-158.88" font-family="sans" font-size="10.00">bcftools_call</text>
</g>
<!-- 2&#45;&gt;1 -->
<g id="edge2" class="edge">
<title>2&#45;&gt;1</title>
<path fill="none" stroke="grey" stroke-width="2" d="M105.5,-143.34C105.5,-136.75 105.5,-129.08 105.5,-121.67"/>
<polygon fill="grey" stroke="grey" stroke-width="2" points="109,-121.93 105.5,-111.93 102,-121.93 109,-121.93"/>
</g>
<!-- 3 -->
<g id="node4" class="node">
<title>3</title>
<path fill="none" stroke="#afd856" stroke-width="2" d="M73,-324C73,-324 12,-324 12,-324 6,-324 0,-318 0,-312 0,-312 0,-300 0,-300 0,-294 6,-288 12,-288 12,-288 73,-288 73,-288 79,-288 85,-294 85,-300 85,-300 85,-312 85,-312 85,-318 79,-324 73,-324"/>
<text text-anchor="middle" x="42.5" y="-302.88" font-family="sans" font-size="10.00">samtools_sort</text>
</g>
<!-- 3&#45;&gt;2 -->
<g id="edge3" class="edge">
<title>3&#45;&gt;2</title>
<path fill="none" stroke="grey" stroke-width="2" d="M27.97,-287.05C14.77,-268.41 -0.77,-238.84 12.5,-216 21.89,-199.84 38.26,-188.19 54.67,-180.01"/>
<polygon fill="grey" stroke="grey" stroke-width="2" points="56.1,-183.21 63.78,-175.9 53.22,-176.83 56.1,-183.21"/>
</g>
<!-- 7 -->
<g id="node8" class="node">
<title>7</title>
<path fill="none" stroke="#59d856" stroke-width="2" d="M103.12,-252C103.12,-252 33.88,-252 33.88,-252 27.88,-252 21.88,-246 21.88,-240 21.88,-240 21.88,-228 21.88,-228 21.88,-222 27.88,-216 33.88,-216 33.88,-216 103.12,-216 103.12,-216 109.12,-216 115.12,-222 115.12,-228 115.12,-228 115.12,-240 115.12,-240 115.12,-246 109.12,-252 103.12,-252"/>
<text text-anchor="middle" x="68.5" y="-230.88" font-family="sans" font-size="10.00">samtools_index</text>
</g>
<!-- 3&#45;&gt;7 -->
<g id="edge9" class="edge">
<title>3&#45;&gt;7</title>
<path fill="none" stroke="grey" stroke-width="2" d="M49.06,-287.34C51.57,-280.59 54.5,-272.69 57.32,-265.11"/>
<polygon fill="grey" stroke="grey" stroke-width="2" points="60.6,-266.33 60.8,-255.74 54.03,-263.9 60.6,-266.33"/>
</g>
<!-- 4 -->
<g id="node5" class="node">
<title>4</title>
<path fill="none" stroke="#d8ac56" stroke-width="2" d="M62.88,-396C62.88,-396 22.12,-396 22.12,-396 16.12,-396 10.12,-390 10.12,-384 10.12,-384 10.12,-372 10.12,-372 10.12,-366 16.12,-360 22.12,-360 22.12,-360 62.88,-360 62.88,-360 68.88,-360 74.88,-366 74.88,-372 74.88,-372 74.88,-384 74.88,-384 74.88,-390 68.88,-396 62.88,-396"/>
<text text-anchor="middle" x="42.5" y="-381.25" font-family="sans" font-size="10.00">bwa_map</text>
<text text-anchor="middle" x="42.5" y="-368.5" font-family="sans" font-size="10.00">sample: A</text>
</g>
<!-- 4&#45;&gt;3 -->
<g id="edge7" class="edge">
<title>4&#45;&gt;3</title>
<path fill="none" stroke="grey" stroke-width="2" d="M42.5,-359.34C42.5,-352.75 42.5,-345.08 42.5,-337.67"/>
<polygon fill="grey" stroke="grey" stroke-width="2" points="46,-337.93 42.5,-327.93 39,-337.93 46,-337.93"/>
</g>
<!-- 5 -->
<g id="node6" class="node">
<title>5</title>
<path fill="none" stroke="#afd856" stroke-width="2" d="M199,-324C199,-324 138,-324 138,-324 132,-324 126,-318 126,-312 126,-312 126,-300 126,-300 126,-294 132,-288 138,-288 138,-288 199,-288 199,-288 205,-288 211,-294 211,-300 211,-300 211,-312 211,-312 211,-318 205,-324 199,-324"/>
<text text-anchor="middle" x="168.5" y="-302.88" font-family="sans" font-size="10.00">samtools_sort</text>
</g>
<!-- 5&#45;&gt;2 -->
<g id="edge4" class="edge">
<title>5&#45;&gt;2</title>
<path fill="none" stroke="grey" stroke-width="2" d="M160.52,-287.02C149.96,-263.22 131.22,-220.97 118.58,-192.48"/>
<polygon fill="grey" stroke="grey" stroke-width="2" points="121.9,-191.33 114.64,-183.61 115.5,-194.17 121.9,-191.33"/>
</g>
<!-- 8 -->
<g id="node9" class="node">
<title>8</title>
<path fill="none" stroke="#59d856" stroke-width="2" d="M253.12,-252C253.12,-252 183.88,-252 183.88,-252 177.88,-252 171.88,-246 171.88,-240 171.88,-240 171.88,-228 171.88,-228 171.88,-222 177.88,-216 183.88,-216 183.88,-216 253.12,-216 253.12,-216 259.12,-216 265.12,-222 265.12,-228 265.12,-228 265.12,-240 265.12,-240 265.12,-246 259.12,-252 253.12,-252"/>
<text text-anchor="middle" x="218.5" y="-230.88" font-family="sans" font-size="10.00">samtools_index</text>
</g>
<!-- 5&#45;&gt;8 -->
<g id="edge10" class="edge">
<title>5&#45;&gt;8</title>
<path fill="none" stroke="grey" stroke-width="2" d="M181.12,-287.34C186.29,-280.1 192.41,-271.53 198.18,-263.45"/>
<polygon fill="grey" stroke="grey" stroke-width="2" points="200.99,-265.54 203.95,-255.37 195.29,-261.47 200.99,-265.54"/>
</g>
<!-- 6 -->
<g id="node7" class="node">
<title>6</title>
<path fill="none" stroke="#d8ac56" stroke-width="2" d="M188.88,-396C188.88,-396 148.12,-396 148.12,-396 142.12,-396 136.12,-390 136.12,-384 136.12,-384 136.12,-372 136.12,-372 136.12,-366 142.12,-360 148.12,-360 148.12,-360 188.88,-360 188.88,-360 194.88,-360 200.88,-366 200.88,-372 200.88,-372 200.88,-384 200.88,-384 200.88,-390 194.88,-396 188.88,-396"/>
<text text-anchor="middle" x="168.5" y="-381.25" font-family="sans" font-size="10.00">bwa_map</text>
<text text-anchor="middle" x="168.5" y="-368.5" font-family="sans" font-size="10.00">sample: B</text>
</g>
<!-- 6&#45;&gt;5 -->
<g id="edge8" class="edge">
<title>6&#45;&gt;5</title>
<path fill="none" stroke="grey" stroke-width="2" d="M168.5,-359.34C168.5,-352.75 168.5,-345.08 168.5,-337.67"/>
<polygon fill="grey" stroke="grey" stroke-width="2" points="172,-337.93 168.5,-327.93 165,-337.93 172,-337.93"/>
</g>
<!-- 7&#45;&gt;2 -->
<g id="edge5" class="edge">
<title>7&#45;&gt;2</title>
<path fill="none" stroke="grey" stroke-width="2" d="M77.84,-215.34C81.53,-208.34 85.88,-200.12 90.02,-192.28"/>
<polygon fill="grey" stroke="grey" stroke-width="2" points="93.04,-194.05 94.62,-183.58 86.86,-190.78 93.04,-194.05"/>
</g>
<!-- 8&#45;&gt;2 -->
<g id="edge6" class="edge">
<title>8&#45;&gt;2</title>
<path fill="none" stroke="grey" stroke-width="2" d="M189.69,-215.15C176.15,-206.76 159.78,-196.62 145.09,-187.52"/>
<polygon fill="grey" stroke="grey" stroke-width="2" points="147.17,-184.7 136.83,-182.41 143.49,-190.65 147.17,-184.7"/>
</g>
</g>
</svg>
